<svg width="222" height="338" viewBox="0 0 222 338" fill="none" xmlns="http://www.w3.org/2000/svg">
    <path d="M218 236.9C218 198 197.2 164 166.3 145.2H55.7C24.8 164 4 198 4 236.9C4 279.9 29.3 317 65.8 334H156.1C192.7 317 218 279.9 218 236.9Z" fill="#CFCFCF" stroke="#137A3A" stroke-width="7" stroke-miterlimit="10"/>
    <path d="M111 293.3C140.6 293.3 164.6 269.3 164.6 239.6C164.6 210 140.6 185.9 111 185.9C81.3999 185.9 57.3999 209.9 57.3999 239.6C57.3999 269.3 81.3999 293.3 111 293.3Z" fill="white" stroke="#137A3A" stroke-width="7" stroke-miterlimit="10"/>
    <path d="M111 313.9C152 313.9 185.3 280.6 185.3 239.6C185.3 198.6 152 165.3 111 165.3C70.0002 165.3 36.7002 198.6 36.7002 239.6C36.7002 280.7 70.0002 313.9 111 313.9Z" stroke="#137A3A" stroke-width="7" stroke-miterlimit="10"/>
    <path d="M57.3999 175.4C62.9999 175.4 67.4999 170.9 67.4999 165.3C67.4999 159.7 62.9999 155.2 57.3999 155.2C51.7999 155.2 47.2999 159.7 47.2999 165.3C47.1999 170.8 51.7999 175.4 57.3999 175.4Z" stroke="#625E60" stroke-width="7" stroke-miterlimit="10"/>
    <path d="M164.6 175.4C170.2 175.4 174.7 170.9 174.7 165.3C174.7 159.7 170.2 155.2 164.6 155.2C159 155.2 154.5 159.7 154.5 165.3C154.5 170.8 159 175.4 164.6 175.4Z" stroke="#625E60" stroke-width="7" stroke-miterlimit="10"/>
    <path d="M163 324.1C168.6 324.1 173.1 319.6 173.1 314C173.1 308.4 168.6 303.9 163 303.9C157.4 303.9 152.9 308.4 152.9 314C152.9 319.5 157.4 324.1 163 324.1Z" stroke="#625E60" stroke-width="7" stroke-miterlimit="10"/>
    <path d="M59 324.1C64.6 324.1 69.1 319.6 69.1 314C69.1 308.4 64.6 303.9 59 303.9C53.4 303.9 48.9 308.4 48.9 314C48.8 319.5 53.4 324.1 59 324.1Z" stroke="#625E60" stroke-width="7" stroke-miterlimit="10"/>
    <path d="M26.4001 282.5C32.4001 282.5 37.2001 278 37.2001 272.4C37.2001 266.8 32.4001 262.3 26.4001 262.3C20.4001 262.3 15.6001 266.8 15.6001 272.4C15.6001 278 20.4001 282.5 26.4001 282.5Z" stroke="#625E60" stroke-width="7" stroke-miterlimit="10"/>
    <path d="M195.6 282.5C201.6 282.5 206.4 278 206.4 272.4C206.4 266.8 201.6 262.3 195.6 262.3C189.6 262.3 184.8 266.8 184.8 272.4C184.8 278 189.7 282.5 195.6 282.5Z" stroke="#625E60" stroke-width="7" stroke-miterlimit="10"/>
    <path d="M26.3001 217C32.2001 217 37.0001 212.5 37.0001 206.9C37.0001 201.3 32.2001 196.8 26.3001 196.8C20.4001 196.8 15.6001 201.3 15.6001 206.9C15.6001 212.5 20.4001 217 26.3001 217Z" stroke="#625E60" stroke-width="7" stroke-miterlimit="10"/>
    <path d="M195.7 217C201.6 217 206.4 212.5 206.4 206.9C206.4 201.3 201.6 196.8 195.7 196.8C189.8 196.8 185 201.3 185 206.9C185 212.5 189.8 217 195.7 217Z" stroke="#625E60" stroke-width="7" stroke-miterlimit="10"/>
    <path d="M152.9 108.5H69.1001V126.8H152.9V108.5Z" fill="#FF9E02" stroke="#625E60" stroke-width="7" stroke-miterlimit="10"/>
    <path d="M152.9 127.7H69.1001V146H152.9V127.7Z" fill="#CFCFCF" stroke="#137A3A" stroke-width="7" stroke-miterlimit="10"/>
    <path d="M63.1998 108.5H184.2C187.2 108.5 189.6 106.1 189.6 103.1V36.8999C189.6 33.8999 187.2 31.3999 184.2 31.3999H63.1998C60.1998 31.3999 57.7998 33.7999 57.7998 36.8999V103.1C57.7998 106.1 60.1998 108.5 63.1998 108.5Z" fill="#FF9E02" stroke="#625E60" stroke-width="7" stroke-miterlimit="10"/>
    <path d="M57.7999 99.9003H37.1999C30.6999 99.9003 25.3999 94.6002 25.3999 88.1002V54.0002C25.3999 47.5002 30.6999 42.2002 37.1999 42.2002H57.7999V99.9003Z" fill="#FF9E02" stroke="#625E60" stroke-width="7" stroke-miterlimit="10"/>
    <path d="M142.8 31.4H84.6001V15.9C84.6001 9.30002 89.9001 4 96.5001 4H130.9C137.5 4 142.8 9.30002 142.8 15.9V31.4Z" fill="#FF9E02" stroke="#625E60" stroke-width="7" stroke-miterlimit="10"/>
</svg>

