<svg width="382" height="262" viewBox="0 0 382 262" fill="none" xmlns="http://www.w3.org/2000/svg">
    <path d="M104.1 156V108C104.1 91.3999 117.6 77.8999 134.1 77.8999H166.4C183 77.8999 196.4 91.3999 196.4 108V156C196.4 172.6 182.9 186.1 166.4 186.1H134.1C117.6 186.1 104.1 172.6 104.1 156Z" fill="#CFCFCF" stroke="#137A3A" stroke-width="7" stroke-miterlimit="10"/>
    <path d="M174.2 47.8999H127.4V77.8999H174.2V47.8999Z" fill="#CFCFCF" stroke="#137A3A" stroke-width="7" stroke-miterlimit="10"/>
    <path d="M174.1 212.8V186.1H126.5V212.8H174.1Z" fill="#CFCFCF" stroke="#137A3A" stroke-width="7" stroke-miterlimit="10"/>
    <path d="M202.7 47.8001V32.6001H99.5V47.8001H202.7Z" fill="#CFCFCF" stroke="#137A3A" stroke-width="7" stroke-miterlimit="10"/>
    <path d="M201.2 228V212.8H98V228H201.2Z" fill="#CFCFCF" stroke="#137A3A" stroke-width="7" stroke-miterlimit="10"/>
    <path d="M227.8 143.5V118.5H196.6V143.5H227.8Z" fill="#CFCFCF" stroke="#137A3A" stroke-width="7" stroke-miterlimit="10"/>
    <path d="M241 158.3V104.3H227.8V158.3H241Z" fill="#CFCFCF" stroke="#137A3A" stroke-width="7" stroke-miterlimit="10"/>
    <path d="M277 148.5V114.2H245V148.5H277Z" fill="#CFCFCF" stroke="#625E60" stroke-width="7" stroke-miterlimit="10"/>
    <path d="M349.5 62.8999H277.1V183.6H349.5V62.8999Z" fill="#005FCF" stroke="#625E60" stroke-width="7" stroke-miterlimit="10"/>
    <path d="M378 112.4H349.5V165.5H378V112.4Z" fill="#005FCF" stroke="#625E60" stroke-width="7" stroke-miterlimit="10"/>
    <path d="M361.7 47.8999H264.9V80.8999H361.7V47.8999Z" fill="#005FCF" stroke="#625E60" stroke-width="7" stroke-miterlimit="10"/>
    <path d="M139.4 124.5C140.4 124.4 141.2 123.5 141.1 122.5C141 121.6 140.3 120.9 139.4 120.8C138.4 120.7 137.5 121.4 137.4 122.5C137.3 123.6 138 124.4 139.1 124.5C139.2 124.5 139.3 124.5 139.4 124.5Z" fill="#007A2E"/>
    <path d="M148.3 105.4C140.6 105.4 133.3 108.8 128.3 114.8C129.5 115 130.7 115.4 131.8 116C131.8 116 161 120 170.7 126.6C168.2 126.4 165.7 126.4 163.2 126.4C160.1 126.5 157 126.7 154 127.1C151 127.4 148 128.1 144.9 128.3C143.4 128.4 141.9 128.5 140.4 128.5C138.9 128.6 137.4 128.4 135.9 128.2C137.4 128.6 138.9 128.8 140.4 128.9C141.9 129.1 143.4 129.1 144.9 128.9C146.4 128.9 147.9 128.7 149.4 128.7C150.9 128.5 152.4 128.4 153.9 128.4C156.9 128.2 159.9 128.2 163 128.4L168.7 128.9C161.6 131.3 144 137.5 137.8 143.2C135.4 146.2 134.5 150.2 135.3 153.9C147.7 161 163.5 156.7 170.6 144.3C177.7 131.9 173.4 116.1 161 109C157.2 106.6 152.8 105.4 148.3 105.4Z" fill="#007A2E"/>
    <path d="M175.8 231.2C175.8 233 174.4 234.4 172.6 234.4H126.7C124.9 234.4 123.5 233 123.5 231.2H175.8Z" fill="#CFCFCF" stroke="#137A3A" stroke-width="2" stroke-miterlimit="10"/>
    <path d="M98 242.8V258H201.1V242.8H98Z" fill="#CFCFCF" stroke="#B0B0B0" stroke-width="7" stroke-miterlimit="10"/>
    <path d="M175.4 239C175.4 237.2 174 235.8 172.2 235.8H126.3C124.5 235.8 123.1 237.2 123.1 239H175.4Z" fill="#CFCFCF" stroke="#B0B0B0" stroke-width="2" stroke-miterlimit="10"/>
    <path d="M99.3999 4V19.2H202.5V4H99.3999Z" fill="#CFCFCF" stroke="#625E60" stroke-width="7" stroke-miterlimit="10"/>
    <path d="M177.6 22.7998C177.6 24.5998 176.2 25.9998 174.4 25.9998H128.5C126.7 25.9998 125.3 24.5998 125.3 22.7998H177.6Z" fill="#CFCFCF" stroke="#625E60" stroke-width="2" stroke-miterlimit="10"/>
    <path d="M177.2 30.5999C177.2 28.7999 175.8 27.3999 174 27.3999H128C126.2 27.3999 124.8 28.7999 124.8 30.5999H177.2Z" fill="#CFCFCF" stroke="#137A3A" stroke-width="2" stroke-miterlimit="10"/>
</svg>

