<svg width="386" height="260" viewBox="0 0 386 260" fill="none" xmlns="http://www.w3.org/2000/svg">
    <path d="M195.9 182.4V209H261.1V182.4H195.9Z" fill="#CFCFCF" stroke="#137A3A" stroke-width="7" stroke-miterlimit="10"/>
    <path d="M196.3 48.1001V74.7001H261.5V48.1001H196.3Z" fill="#CFCFCF" stroke="#137A3A" stroke-width="7" stroke-miterlimit="10"/>
    <path d="M281.8 104.8V152.5C281.8 169 268.3 182.5 251.6 182.5H206.2C189.5 182.5 176 169.1 176 152.5V104.8C176 88.2999 189.5 74.7999 206.2 74.7999H251.6C268.3 74.6999 281.8 88.1999 281.8 104.8Z" fill="#CFCFCF" stroke="#137A3A" stroke-width="7" stroke-miterlimit="10"/>
    <path d="M170.8 212.3V227.4H287V212.3H170.8Z" fill="#CFCFCF" stroke="#137A3A" stroke-width="7" stroke-miterlimit="10"/>
    <path d="M171.6 33.1001V48.2001H287.9V33.1001H171.6Z" fill="#CFCFCF" stroke="#137A3A" stroke-width="7" stroke-miterlimit="10"/>
    <path d="M171.7 4V19.1H288V4H171.7Z" fill="#CFCFCF" stroke="#625E60" stroke-width="7" stroke-miterlimit="10"/>
    <path d="M151.1 117.2V142.1H176.2V117.2H151.1Z" fill="#CFCFCF" stroke="#137A3A" stroke-width="7" stroke-miterlimit="10"/>
    <path d="M137.9 102.4V156.2H151.1V102.4H137.9Z" fill="#CFCFCF" stroke="#137A3A" stroke-width="7" stroke-miterlimit="10"/>
    <path d="M101.7 112.2V146.4H133.8V112.2H101.7Z" fill="#CFCFCF" stroke="#625E60" stroke-width="7" stroke-miterlimit="10"/>
    <path d="M32.7002 179.7H105.4V59.6001H32.7002V179.7Z" fill="#969C99" stroke="#625E60" stroke-width="7" stroke-miterlimit="10"/>
    <path d="M4 161.8H32.7V108.9H4V161.8Z" fill="#969C99" stroke="#625E60" stroke-width="7" stroke-miterlimit="10"/>
    <path d="M20.2998 94.3002H117.6V44.7002H20.2998V94.3002Z" fill="#969C99" stroke="#625E60" stroke-width="7" stroke-miterlimit="10"/>
    <path d="M217.4 122.8C218.4 122.7 219.2 121.8 219.1 120.8C219 119.9 218.3 119.2 217.4 119.1C216.4 119 215.5 119.7 215.4 120.8C215.3 121.9 216 122.7 217.1 122.8C217.1 122.8 217.2 122.8 217.4 122.8Z" fill="#007A2E"/>
    <path d="M226.3 103.8C218.6 103.8 211.3 107.2 206.3 113.2C207.5 113.4 208.7 113.8 209.8 114.4C209.8 114.4 239 118.4 248.7 125C246.2 124.8 243.7 124.8 241.2 124.8C238.1 124.9 235 125.1 232 125.5C229 125.8 226 126.5 222.9 126.7C221.4 126.8 219.9 126.9 218.4 126.9C216.9 127 215.4 126.8 213.9 126.6C215.4 127 216.9 127.2 218.4 127.3C219.9 127.5 221.4 127.5 222.9 127.3C224.4 127.3 225.9 127.1 227.4 127.1C228.9 126.9 230.4 126.8 231.9 126.8C234.9 126.6 237.9 126.6 241 126.8L246.7 127.3C239.6 129.7 222 135.9 215.8 141.5C213.4 144.5 212.5 148.5 213.3 152.2C225.7 159.3 241.5 155 248.6 142.6C255.7 130.2 251.4 114.5 239 107.4C235.1 105 230.7 103.8 226.3 103.8Z" fill="#007A2E"/>
    <path d="M255.3 230.7C255.3 232.5 253.9 233.9 252.1 233.9H206C204.2 233.9 202.8 232.5 202.8 230.7H255.3Z" fill="#CFCFCF" stroke="#137A3A" stroke-width="2" stroke-miterlimit="10"/>
    <path d="M170.7 240.9V256H286.7V240.9H170.7Z" fill="#CFCFCF" stroke="#B0B0B0" stroke-width="7" stroke-miterlimit="10"/>
    <path d="M254 238.5C254 236.7 252.6 235.3 250.8 235.3H204.8C203 235.3 201.6 236.7 201.6 238.5H254Z" fill="#CFCFCF" stroke="#B0B0B0" stroke-width="2" stroke-miterlimit="10"/>
    <path d="M256.5 22.7998C256.5 24.5998 255.1 25.9998 253.3 25.9998H207.2C205.4 25.9998 204 24.5998 204 22.7998H256.5Z" fill="#CFCFCF" stroke="#625E60" stroke-width="2" stroke-miterlimit="10"/>
    <path d="M255.9 30.5C255.9 28.8 254.5 27.5 252.7 27.5H206.9C205.1 27.5 203.7 28.8 203.7 30.5H255.9Z" fill="#CFCFCF" stroke="#137A3A" stroke-width="2" stroke-miterlimit="10"/>
</svg>

