<svg width="1200" height="1600" viewBox="0 0 1200 1600" fill="none" xmlns="http://www.w3.org/2000/svg">
    <path d="M1200 0H0V1600H1200V0Z" fill="#EDEEF4"/>
    <path d="M75 276H1125C1141.6 276 1155 289.4 1155 306V1348C1155 1364.6 1141.6 1378 1125 1378H75C58.4 1378 45 1364.6 45 1348V306C45 289.4 58.4 276 75 276Z" fill="#FFF9F9"/>
    <path d="M404 1461H396.8V1446.2H383.2V1461H376V1426.7H383.2V1440.1H396.8V1426.7H404V1461ZM422.8 1434.3C426.3 1434.3 429 1435.1 430.9 1436.6C432.8 1438.1 433.7 1440.4 433.7 1443.6V1461.1H428.7L427.3 1457.5H427.1C426 1458.9 424.8 1459.9 423.5 1460.6C422.3 1461.2 420.5 1461.6 418.4 1461.6C416.1 1461.6 414.1 1460.9 412.6 1459.6C411.1 1458.2 410.3 1456.1 410.3 1453.3C410.3 1450.5 411.3 1448.5 413.2 1447.1C415.2 1445.8 418.1 1445 422 1444.9L426.6 1444.8V1443.6C426.6 1442.2 426.2 1441.2 425.5 1440.6C424.8 1440 423.8 1439.6 422.5 1439.6C421.2 1439.6 420 1439.8 418.8 1440.2C417.6 1440.5 416.4 1441 415.2 1441.5L412.8 1436.7C414.2 1436 415.8 1435.4 417.5 1435C419.2 1434.5 421 1434.3 422.8 1434.3ZM423.8 1448.9C421.5 1449 419.9 1449.4 419 1450.2C418.1 1451 417.7 1452 417.7 1453.2C417.7 1454.3 418 1455.1 418.7 1455.6C419.3 1456 420.2 1456.3 421.2 1456.3C422.7 1456.3 424 1455.9 425.1 1455C426.2 1454.1 426.7 1452.8 426.7 1451.1V1448.9H423.8ZM478.3 1434.8L468.7 1447.4L479.3 1461H471.7L461.7 1447.7V1461H455V1447.7L445 1461H437.4L448 1447.4L438.4 1434.8H445.8L455.1 1447.5V1434.8H461.8V1447.5L471.1 1434.8H478.3ZM516 1434.8V1461H509.3V1448.1C509.3 1446.8 509.3 1445.6 509.3 1444.3C509.4 1443.1 509.4 1442 509.5 1440.9H509.4L502.2 1460.9H496.8L489.5 1440.9H489.3C489.4 1442 489.5 1443.1 489.5 1444.3C489.6 1445.5 489.6 1446.8 489.6 1448.2V1460.9H482.9V1434.7H493L499.5 1452.5L506.1 1434.7H516V1434.8ZM530.4 1445.2C530.4 1445.7 530.4 1446.4 530.3 1447.2C530.3 1448 530.2 1448.8 530.2 1449.6C530.2 1450.4 530.1 1451.2 530.1 1451.8C530 1452.4 530 1452.9 530 1453.2L542.1 1434.8H550.7V1461H543.8V1450.5C543.8 1449.6 543.8 1448.7 543.9 1447.7C544 1446.7 544 1445.7 544.1 1444.8C544.2 1443.9 544.3 1443.2 544.3 1442.7L532.3 1461H523.7V1434.8H530.6V1445.2H530.4ZM579.7 1440.2H571.1V1461H563.9V1440.2H555.3V1434.8H579.6V1440.2H579.7ZM594.9 1434.3C598.5 1434.3 601.4 1435.3 603.5 1437.4C605.6 1439.4 606.7 1442.4 606.7 1446.2V1449.7H589.8C589.9 1451.7 590.5 1453.3 591.6 1454.5C592.8 1455.7 594.3 1456.2 596.4 1456.2C598.1 1456.2 599.6 1456 601 1455.7C602.4 1455.3 603.8 1454.8 605.3 1454.1V1459.6C604 1460.2 602.7 1460.7 601.2 1461C599.8 1461.3 598.1 1461.5 596.1 1461.5C593.5 1461.5 591.2 1461 589.1 1460.1C587.1 1459.1 585.5 1457.6 584.3 1455.6C583.1 1453.6 582.6 1451.1 582.6 1448.1C582.6 1445 583.1 1442.5 584.1 1440.5C585.2 1438.5 586.6 1436.9 588.5 1435.9C590.2 1434.8 592.4 1434.3 594.9 1434.3ZM594.9 1439.4C593.5 1439.4 592.4 1439.8 591.4 1440.7C590.5 1441.6 590 1443 589.8 1444.9H599.8C599.8 1443.3 599.4 1442 598.6 1441C597.8 1439.9 596.6 1439.4 594.9 1439.4ZM632.3 1434.8V1444.9H642.3V1434.8H649.5V1461H642.3V1450.2H632.3V1461H625.1V1434.8H632.3ZM667.7 1434.3C671.2 1434.3 673.9 1435.1 675.8 1436.6C677.7 1438.1 678.6 1440.4 678.6 1443.6V1461.1H673.6L672.2 1457.5H672C670.9 1458.9 669.7 1459.9 668.4 1460.6C667.2 1461.2 665.4 1461.6 663.3 1461.6C661 1461.6 659 1460.9 657.5 1459.6C656 1458.2 655.2 1456.1 655.2 1453.3C655.2 1450.5 656.2 1448.5 658.1 1447.1C660.1 1445.8 663 1445 666.9 1444.9L671.5 1444.8V1443.6C671.5 1442.2 671.1 1441.2 670.4 1440.6C669.7 1440 668.7 1439.6 667.4 1439.6C666.1 1439.6 664.9 1439.8 663.7 1440.2C662.5 1440.5 661.3 1441 660.1 1441.5L657.7 1436.7C659.1 1436 660.7 1435.4 662.4 1435C664 1434.5 665.8 1434.3 667.7 1434.3ZM668.7 1448.9C666.4 1449 664.8 1449.4 663.9 1450.2C663 1451 662.6 1452 662.6 1453.2C662.6 1454.3 662.9 1455.1 663.6 1455.6C664.2 1456 665.1 1456.3 666.1 1456.3C667.6 1456.3 668.9 1455.9 670 1455C671.1 1454.1 671.6 1452.8 671.6 1451.1V1448.9H668.7ZM728.5 1434.8H736.4L726 1447.4L737.3 1461H729.2L718.5 1447.7V1461H711.3V1434.8H718.5V1447.5L728.5 1434.8ZM755.6 1434.3C758.5 1434.3 760.9 1435.4 762.8 1437.8C764.6 1440.1 765.5 1443.4 765.5 1447.9C765.5 1452.4 764.6 1455.7 762.7 1458.1C760.8 1460.4 758.4 1461.6 755.5 1461.6C753.6 1461.6 752.1 1461.3 751 1460.6C749.9 1459.9 749 1459.1 748.3 1458.3H747.9C748.2 1459.6 748.3 1460.9 748.3 1462.1V1472.7H741V1435H746.8L747.8 1438.4H748.1C748.8 1437.3 749.7 1436.4 750.9 1435.7C752.2 1434.7 753.7 1434.3 755.6 1434.3ZM753.3 1440C751.4 1440 750.1 1440.6 749.4 1441.7C748.7 1442.9 748.3 1444.6 748.2 1447V1447.8C748.2 1450.3 748.6 1452.3 749.3 1453.7C750.1 1455 751.4 1455.7 753.4 1455.7C755 1455.7 756.2 1455 757 1453.7C757.8 1452.3 758.2 1450.4 758.2 1447.8C758.2 1442.6 756.5 1440 753.3 1440ZM782.1 1434.3C785.6 1434.3 788.3 1435.1 790.2 1436.6C792.1 1438.1 793 1440.4 793 1443.6V1461.1H788L786.6 1457.5H786.4C785.3 1458.9 784.1 1459.9 782.8 1460.6C781.6 1461.2 779.8 1461.6 777.7 1461.6C775.4 1461.6 773.4 1460.9 771.9 1459.6C770.4 1458.2 769.6 1456.1 769.6 1453.3C769.6 1450.5 770.6 1448.5 772.5 1447.1C774.5 1445.8 777.4 1445 781.3 1444.9L785.9 1444.8V1443.6C785.9 1442.2 785.5 1441.2 784.8 1440.6C784.1 1440 783.1 1439.6 781.8 1439.6C780.5 1439.6 779.3 1439.8 778.1 1440.2C776.9 1440.5 775.7 1441 774.5 1441.5L772.1 1436.7C773.5 1436 775.1 1435.4 776.8 1435C778.5 1434.5 780.3 1434.3 782.1 1434.3ZM783.1 1448.9C780.8 1449 779.2 1449.4 778.3 1450.2C777.4 1451 777 1452 777 1453.2C777 1454.3 777.3 1455.1 778 1455.6C778.6 1456 779.5 1456.3 780.5 1456.3C782 1456.3 783.3 1455.9 784.4 1455C785.5 1454.1 786 1452.8 786 1451.1V1448.9H783.1ZM807.5 1434.8V1444.9H817.5V1434.8H824.7V1461H817.5V1450.2H807.5V1461H800.3V1434.8H807.5ZM366.8 1495.8V1516.8H370.6V1531.4H364.2V1522H346.6V1531.4H340.2V1516.8H342.4C343.6 1515 344.5 1513 345.3 1510.8C346.1 1508.5 346.7 1506.1 347.2 1503.5C347.7 1500.9 348 1498.4 348.3 1495.8H366.8ZM354.3 1501.2C353.9 1504.1 353.4 1506.9 352.7 1509.5C352 1512.1 351.1 1514.5 349.9 1516.8H359.7V1501.2H354.3ZM398.6 1522H391.4V1501.2H384.8C384.4 1506.3 383.8 1510.5 383.1 1513.6C382.4 1516.7 381.5 1519 380.3 1520.4C379.1 1521.8 377.5 1522.5 375.4 1522.5C373.7 1522.5 372.4 1522.2 371.3 1521.7V1516C372 1516.3 372.8 1516.5 373.6 1516.5C374.2 1516.5 374.7 1516.2 375.2 1515.6C375.7 1515 376.1 1514 376.5 1512.5C376.9 1511 377.3 1508.9 377.7 1506.2C378.1 1503.5 378.4 1500 378.7 1495.8H398.5V1522H398.6ZM410.1 1522H402.4L409.5 1511.6C408.2 1511.1 407 1510.2 405.9 1509C404.9 1507.7 404.4 1506.1 404.4 1503.9C404.4 1501.3 405.4 1499.3 407.4 1497.9C409.4 1496.5 411.9 1495.8 415 1495.8H427V1522H419.8V1512.3H416L410.1 1522ZM411.3 1503.9C411.3 1505 411.7 1505.9 412.6 1506.5C413.5 1507.1 414.6 1507.4 416 1507.4H420V1500.8H415C413.7 1500.8 412.8 1501.1 412.2 1501.8C411.6 1502.4 411.3 1503.1 411.3 1503.9ZM470.5 1502.7C470.5 1504.1 470.1 1505.3 469.2 1506.3C468.3 1507.3 467 1507.9 465.3 1508.2V1508.4C467.1 1508.6 468.6 1509.2 469.7 1510.3C470.8 1511.3 471.4 1512.6 471.4 1514.2C471.4 1515.7 471 1517 470.2 1518.2C469.4 1519.4 468.2 1520.3 466.5 1521C464.8 1521.7 462.6 1522 459.8 1522H447.3V1495.8H459.8C461.8 1495.8 463.7 1496 465.3 1496.5C466.9 1496.9 468.2 1497.6 469.1 1498.6C470 1499.6 470.5 1500.9 470.5 1502.7ZM463.2 1503.2C463.2 1501.6 461.9 1500.8 459.4 1500.8H454.4V1506H458.6C460.1 1506 461.2 1505.8 462 1505.4C462.8 1504.9 463.2 1504.2 463.2 1503.2ZM463.9 1513.8C463.9 1512.8 463.5 1512 462.7 1511.6C461.9 1511.1 460.7 1510.9 459.1 1510.9H454.4V1517.1H459.2C460.5 1517.1 461.6 1516.9 462.5 1516.4C463.4 1515.8 463.9 1515 463.9 1513.8ZM487 1495.3C488.9 1495.3 490.6 1495.6 492.3 1496.1C494 1496.6 495.3 1497.3 496.3 1498.4C497.3 1499.4 497.8 1500.7 497.8 1502.3C497.8 1503.9 497.3 1505.1 496.4 1506.1C495.5 1507 494.2 1507.7 492.6 1508.1V1508.3C493.7 1508.6 494.7 1508.9 495.6 1509.4C496.5 1509.8 497.2 1510.5 497.7 1511.3C498.2 1512.1 498.5 1513.1 498.5 1514.4C498.5 1515.8 498 1517.2 497.1 1518.4C496.2 1519.6 494.8 1520.6 492.9 1521.4C491 1522.1 488.6 1522.5 485.6 1522.5C481.2 1522.5 477.9 1522 475.5 1520.9V1515C476.6 1515.5 477.9 1516 479.5 1516.4C481.1 1516.8 482.8 1517 484.6 1517C486.6 1517 488.2 1516.8 489.5 1516.3C490.8 1515.8 491.5 1515.1 491.5 1513.9C491.5 1511.8 489 1510.8 484.1 1510.8H481.3V1505.9H483.9C486.3 1505.9 488.1 1505.7 489.4 1505.3C490.7 1504.9 491.4 1504.2 491.4 1503.1C491.4 1502.3 491 1501.6 490.2 1501.2C489.4 1500.8 488 1500.5 486.1 1500.5C484.9 1500.5 483.5 1500.7 482 1500.9C480.5 1501.2 479.1 1501.6 477.8 1502.2L475.7 1497.2C477.2 1496.6 478.9 1496.2 480.6 1495.8C482.4 1495.5 484.5 1495.3 487 1495.3ZM514.8 1495.3C518.3 1495.3 521 1496.1 522.9 1497.6C524.8 1499.1 525.7 1501.4 525.7 1504.6V1522.1H520.7L519.3 1518.5H519.1C518 1519.9 516.8 1520.9 515.5 1521.6C514.3 1522.2 512.5 1522.6 510.4 1522.6C508.1 1522.6 506.1 1521.9 504.6 1520.6C503.1 1519.2 502.3 1517.1 502.3 1514.3C502.3 1511.5 503.3 1509.5 505.2 1508.1C507.2 1506.8 510.1 1506 514 1505.9L518.6 1505.8V1504.6C518.6 1503.2 518.2 1502.2 517.5 1501.6C516.8 1501 515.8 1500.6 514.5 1500.6C513.2 1500.6 512 1500.8 510.8 1501.2C509.6 1501.5 508.4 1502 507.2 1502.5L504.8 1497.7C506.2 1497 507.8 1496.4 509.5 1496C511.1 1495.5 512.9 1495.3 514.8 1495.3ZM515.8 1509.9C513.5 1510 511.9 1510.4 511 1511.2C510.1 1512 509.7 1513 509.7 1514.2C509.7 1515.3 510 1516.1 510.7 1516.6C511.3 1517 512.2 1517.3 513.2 1517.3C514.7 1517.3 516 1516.9 517.1 1516C518.2 1515.1 518.7 1513.8 518.7 1512.1V1509.9H515.8ZM539.9 1506.2C539.9 1506.7 539.9 1507.4 539.8 1508.2C539.8 1509 539.7 1509.8 539.7 1510.6C539.7 1511.4 539.6 1512.2 539.6 1512.8C539.5 1513.4 539.5 1513.9 539.5 1514.2L551.6 1495.8H560.2V1522H553.3V1511.5C553.3 1510.6 553.3 1509.7 553.4 1508.7C553.5 1507.7 553.5 1506.7 553.6 1505.8C553.7 1504.9 553.8 1504.2 553.8 1503.7L541.8 1522H533V1495.8H539.9V1506.2ZM600.6 1495.8V1522H593.9V1509.1C593.9 1507.8 593.9 1506.6 593.9 1505.3C594 1504.1 594 1503 594.1 1501.9H594L586.8 1521.9H581.4L574.1 1501.9H573.9C574 1503 574.1 1504.1 574.1 1505.3C574.2 1506.5 574.2 1507.8 574.2 1509.2V1521.9H567.5V1495.7H577.6L584.1 1513.5L590.7 1495.7H600.6V1495.8ZM631.9 1508.8C631.9 1513.1 630.7 1516.5 628.4 1518.9C626.1 1521.3 623 1522.4 619.1 1522.4C616.7 1522.4 614.5 1521.9 612.6 1520.8C610.7 1519.7 609.2 1518.2 608.1 1516.2C607 1514.1 606.5 1511.7 606.5 1508.8C606.5 1504.5 607.6 1501.1 609.9 1498.8C612.2 1496.5 615.3 1495.3 619.3 1495.3C621.8 1495.3 623.9 1495.8 625.8 1496.9C627.7 1497.9 629.2 1499.5 630.3 1501.5C631.3 1503.5 631.9 1505.9 631.9 1508.8ZM613.8 1508.8C613.8 1511.4 614.2 1513.4 615 1514.7C615.9 1516 617.3 1516.7 619.2 1516.7C621.1 1516.7 622.4 1516 623.3 1514.7C624.2 1513.4 624.6 1511.4 624.6 1508.8C624.6 1506.2 624.2 1504.3 623.3 1503C622.5 1501.7 621.1 1501 619.2 1501C617.3 1501 615.9 1501.7 615.1 1503C614.2 1504.3 613.8 1506.3 613.8 1508.8ZM661.3 1495.8V1516.8H665.1V1531.4H658.7V1522H641.1V1531.4H634.7V1516.8H636.9C638.1 1515 639 1513 639.8 1510.8C640.6 1508.5 641.2 1506.1 641.7 1503.5C642.2 1500.9 642.5 1498.4 642.8 1495.8H661.3ZM648.8 1501.2C648.4 1504.1 647.9 1506.9 647.2 1509.5C646.5 1512.1 645.6 1514.5 644.4 1516.8H654.2V1501.2H648.8ZM680.5 1495.3C684.1 1495.3 687 1496.3 689.1 1498.4C691.2 1500.4 692.3 1503.4 692.3 1507.2V1510.7H675.4C675.5 1512.7 676.1 1514.3 677.2 1515.5C678.4 1516.7 679.9 1517.2 682 1517.2C683.7 1517.2 685.2 1517 686.6 1516.7C688 1516.3 689.4 1515.8 690.9 1515.1V1520.6C689.6 1521.2 688.3 1521.7 686.8 1522C685.4 1522.3 683.7 1522.5 681.7 1522.5C679.1 1522.5 676.8 1522 674.7 1521.1C672.7 1520.1 671.1 1518.6 669.9 1516.6C668.7 1514.6 668.2 1512.1 668.2 1509.1C668.2 1506 668.7 1503.5 669.7 1501.5C670.8 1499.5 672.2 1497.9 674.1 1496.9C675.8 1495.8 678 1495.3 680.5 1495.3ZM680.5 1500.4C679.1 1500.4 678 1500.8 677 1501.7C676.1 1502.6 675.6 1504 675.4 1505.9H685.4C685.4 1504.3 685 1503 684.2 1502C683.4 1500.9 682.2 1500.4 680.5 1500.4ZM723.1 1484.5C722.9 1486.2 722.5 1487.6 721.7 1488.9C720.9 1490.2 719.7 1491.1 718.1 1491.8C716.5 1492.5 714.3 1492.9 711.5 1492.9C708.7 1492.9 706.5 1492.6 704.9 1491.9C703.3 1491.2 702.2 1490.2 701.5 1489C700.8 1487.7 700.4 1486.3 700.3 1484.5H706.7C706.9 1486.3 707.3 1487.4 708 1488C708.7 1488.6 709.9 1488.9 711.6 1488.9C713 1488.9 714.1 1488.6 715 1488C715.9 1487.4 716.4 1486.2 716.6 1484.5H723.1ZM704.9 1506.2C704.9 1506.7 704.9 1507.4 704.8 1508.2C704.8 1509 704.7 1509.8 704.7 1510.6C704.7 1511.4 704.6 1512.2 704.6 1512.8C704.5 1513.4 704.5 1513.9 704.5 1514.2L716.6 1495.8H725.2V1522H718.3V1511.5C718.3 1510.6 718.3 1509.7 718.4 1508.7C718.5 1507.7 718.5 1506.7 718.6 1505.8C718.7 1504.9 718.8 1504.2 718.8 1503.7L706.8 1522H698V1495.8H704.9V1506.2ZM743.2 1522.5C739.3 1522.5 736.3 1521.4 734.1 1519.3C732 1517.1 730.9 1513.7 730.9 1509.1C730.9 1505.9 731.4 1503.3 732.5 1501.3C733.6 1499.3 735.1 1497.8 737 1496.8C739 1495.8 741.2 1495.4 743.7 1495.4C745.5 1495.4 747 1495.6 748.4 1495.9C749.7 1496.2 750.9 1496.7 751.9 1497.2L749.8 1502.7C748.7 1502.3 747.6 1501.9 746.6 1501.6C745.6 1501.3 744.7 1501.2 743.7 1501.2C740 1501.2 738.1 1503.8 738.1 1509.1C738.1 1511.7 738.6 1513.7 739.5 1514.9C740.5 1516.2 741.9 1516.8 743.6 1516.8C745.1 1516.8 746.4 1516.6 747.6 1516.2C748.8 1515.8 749.9 1515.2 751 1514.5V1520.6C749.9 1521.3 748.8 1521.8 747.5 1522.1C746.5 1522.3 745 1522.5 743.2 1522.5ZM778.9 1501.2H770.3V1522H763.1V1501.2H754.5V1495.8H778.8V1501.2H778.9ZM807 1502.7C807 1504.1 806.6 1505.3 805.7 1506.3C804.8 1507.3 803.5 1507.9 801.8 1508.2V1508.4C803.6 1508.6 805.1 1509.2 806.2 1510.3C807.3 1511.3 807.9 1512.6 807.9 1514.2C807.9 1515.7 807.5 1517 806.7 1518.2C805.9 1519.4 804.7 1520.3 803 1521C801.3 1521.7 799.1 1522 796.3 1522H783.8V1495.8H796.3C798.3 1495.8 800.2 1496 801.8 1496.5C803.4 1496.9 804.7 1497.6 805.6 1498.6C806.5 1499.6 807 1500.9 807 1502.7ZM799.7 1503.2C799.7 1501.6 798.4 1500.8 795.9 1500.8H790.9V1506H795.1C796.6 1506 797.7 1505.8 798.5 1505.4C799.3 1504.9 799.7 1504.2 799.7 1503.2ZM800.4 1513.8C800.4 1512.8 800 1512 799.2 1511.6C798.4 1511.1 797.2 1510.9 795.6 1510.9H790.9V1517.1H795.7C797 1517.1 798.1 1516.9 799 1516.4C800 1515.8 800.4 1515 800.4 1513.8ZM820.8 1506.2C820.8 1506.7 820.8 1507.4 820.7 1508.2C820.7 1509 820.6 1509.8 820.6 1510.6C820.6 1511.4 820.5 1512.2 820.5 1512.8C820.4 1513.4 820.4 1513.9 820.4 1514.2L832.5 1495.8H841.1V1522H834.2V1511.5C834.2 1510.6 834.2 1509.7 834.3 1508.7C834.4 1507.7 834.4 1506.7 834.5 1505.8C834.6 1504.9 834.7 1504.2 834.7 1503.7L822.7 1522H814.1V1495.8H821V1506.2H820.8ZM852.5 1522H844.8L851.9 1511.6C850.6 1511.1 849.4 1510.2 848.3 1509C847.3 1507.7 846.8 1506.1 846.8 1503.9C846.8 1501.3 847.8 1499.3 849.8 1497.9C851.8 1496.5 854.3 1495.8 857.4 1495.8H869.6V1522H862.4V1512.3H858.5L852.5 1522ZM853.7 1503.9C853.7 1505 854.1 1505.9 855 1506.5C855.9 1507.1 857 1507.4 858.4 1507.4H862.4V1500.8H857.5C856.2 1500.8 855.3 1501.1 854.7 1501.8C854 1502.4 853.7 1503.1 853.7 1503.9Z" fill="#007A2E"/>
    <path d="M1040.2 564.9V1087.9H1067.9V564.9H1040.2Z" fill="#CFCFCF" stroke="#B0B0B0" stroke-width="7" stroke-miterlimit="10"/>
    <path d="M303.3 774.4V1087.9H331V774.4H303.3Z" fill="#CFCFCF" stroke="#B0B0B0" stroke-width="7" stroke-miterlimit="10"/>
    <path d="M987.4 1334.9H915.7C909.5 1334.9 904.4 1329.8 904.4 1323.6V1214.5C904.4 1208.3 909.5 1203.2 915.7 1203.2H987.4C993.6 1203.2 998.7 1208.3 998.7 1214.5V1323.7C998.7 1329.9 993.7 1334.9 987.4 1334.9Z" fill="#C6C6C4" stroke="#464646" stroke-width="7" stroke-miterlimit="10"/>
    <path d="M1039.8 1087.9L1040 1126.5C1040 1130.5 1036.2 1133.8 1031.5 1133.8H1004.8V1133.7H963.2C950.1 1133.7 939.5 1142.8 939.5 1154V1203.1H967.8L967.6 1164.5C967.6 1160.5 971.4 1157.2 976.1 1157.2H1002.8V1157.3H1044.4C1057.5 1157.3 1068.1 1148.2 1068.1 1137V1087.9H1039.8Z" fill="#FFDB00" stroke="#464646" stroke-width="7" stroke-miterlimit="10"/>
    <path d="M592.9 440.7H427.9V468.4H592.9V440.7Z" fill="#CFCFCF" stroke="#B0B0B0" stroke-width="7" stroke-miterlimit="10"/>
    <path d="M942.1 440.9H862.7V468.6H942.1V440.9Z" fill="#CFCFCF" stroke="#B0B0B0" stroke-width="7" stroke-miterlimit="10"/>
    <path d="M824.6 440.7H634.1V468.4H697.9C707.3 468.4 715 476 715 485.5V565H742.6V485.5C742.6 476.1 750.2 468.4 759.7 468.4H824.6V440.7Z" fill="#CFCFCF" stroke="#625E60" stroke-width="7" stroke-miterlimit="10"/>
    <image id="valve-right" x="576" y="566" width="378" height="254" href="valve-r_open.svg"/>
    <path d="M712.4 1087.9L714.6 819.5H742.3L740.1 1087.9H712.4Z" fill="#CFCFCF" stroke="#B0B0B0" stroke-width="7" stroke-miterlimit="10"/>
    <path d="M385.3 498.5H400.5V410.6H385.3V498.5Z" fill="#CFCFCF" stroke="#625E60" stroke-width="7" stroke-miterlimit="10"/>
    <path d="M402.5 428.3C404.3 428.3 405.7 429.7 405.7 431.5V477.5C405.7 479.3 404.3 480.7 402.5 480.7V428.3Z" fill="#CFCFCF" stroke="#625E60" stroke-width="2" stroke-miterlimit="10"/>
    <path d="M414 498.5H429.2V410.9H414V498.5Z" fill="#CFCFCF" stroke="#B0B0B0" stroke-width="7" stroke-miterlimit="10"/>
    <path d="M410.3 428.7C408.5 428.7 407.1 430.1 407.1 431.9V477.9C407.1 479.7 408.5 481.1 410.3 481.1V428.7Z" fill="#CFCFCF" stroke="#B0B0B0" stroke-width="2" stroke-miterlimit="10"/>
    <path d="M636.8 410.6H621.6V498.5H636.8V410.6Z" fill="#CFCFCF" stroke="#625E60" stroke-width="7" stroke-miterlimit="10"/>
    <path d="M619.6 480.8C617.8 480.8 616.4 479.4 616.4 477.6V431.6C616.4 429.8 617.8 428.4 619.6 428.4V480.8Z" fill="#CFCFCF" stroke="#625E60" stroke-width="2" stroke-miterlimit="10"/>
    <path d="M608 410.6H592.8V498.2H608V410.6Z" fill="#CFCFCF" stroke="#B0B0B0" stroke-width="7" stroke-miterlimit="10"/>
    <path d="M611.8 480.4C613.6 480.4 615 479 615 477.2V431.2C615 429.4 613.6 428 611.8 428V480.4Z" fill="#CFCFCF" stroke="#B0B0B0" stroke-width="2" stroke-miterlimit="10"/>
    <path d="M821.4 498.6H836.6V410.7H821.4V498.6Z" fill="#CFCFCF" stroke="#625E60" stroke-width="7" stroke-miterlimit="10"/>
    <path d="M838.6 428.5C840.4 428.5 841.8 429.9 841.8 431.7V477.7C841.8 479.5 840.4 480.9 838.6 480.9V428.5Z" fill="#CFCFCF" stroke="#625E60" stroke-width="2" stroke-miterlimit="10"/>
    <path d="M850.1 498.6H865.3V411H850.1V498.6Z" fill="#CFCFCF" stroke="#B0B0B0" stroke-width="7" stroke-miterlimit="10"/>
    <path d="M846.4 428.9C844.6 428.9 843.2 430.3 843.2 432.1V478.1C843.2 479.9 844.6 481.3 846.4 481.3V428.9Z" fill="#CFCFCF" stroke="#B0B0B0" stroke-width="2" stroke-miterlimit="10"/>
    <path d="M988.1 410.3H972.9V498.2H988.1V410.3Z" fill="#CFCFCF" stroke="#625E60" stroke-width="7" stroke-miterlimit="10"/>
    <path d="M970.9 480.4C969.1 480.4 967.7 479 967.7 477.2V431.2C967.7 429.4 969.1 428 970.9 428V480.4Z" fill="#CFCFCF" stroke="#625E60" stroke-width="2" stroke-miterlimit="10"/>
    <path d="M959.4 410.3H944.2V497.9H959.4V410.3Z" fill="#CFCFCF" stroke="#B0B0B0" stroke-width="7" stroke-miterlimit="10"/>
    <path d="M963.1 480C964.9 480 966.3 478.6 966.3 476.8V430.8C966.3 429 964.9 427.6 963.1 427.6V480Z" fill="#CFCFCF" stroke="#B0B0B0" stroke-width="2" stroke-miterlimit="10"/>
    <path d="M1005.1 520.7V535.9H1105V520.7H1005.1Z" fill="#CFCFCF" stroke="#625E60" stroke-width="7" stroke-miterlimit="10"/>
    <path d="M1081.3 537.9C1081.3 539.7 1079.9 541.1 1078.1 541.1H1032.1C1030.3 541.1 1028.9 539.7 1028.9 537.9H1081.3Z" fill="#CFCFCF" stroke="#625E60" stroke-width="2" stroke-miterlimit="10"/>
    <path d="M1005.1 549.5V564.7H1104.7V549.5H1005.1Z" fill="#CFCFCF" stroke="#B0B0B0" stroke-width="7" stroke-miterlimit="10"/>
    <path d="M1080.9 545.7C1080.9 543.9 1079.5 542.5 1077.7 542.5H1031.7C1029.9 542.5 1028.5 543.9 1028.5 545.7H1080.9Z" fill="#CFCFCF" stroke="#B0B0B0" stroke-width="2" stroke-miterlimit="10"/>
    <path d="M384.9 439.9H333.2C317.9 439.9 305.5 452.3 305.5 467.6V519.3H333.2V477.7C333.2 472.1 337.7 467.5 343.4 467.5H385V439.9H384.9Z" fill="#CFCFCF" stroke="#625E60" stroke-width="7" stroke-miterlimit="10"/>
    <path d="M1068.1 519.3V467.6C1068.1 452.3 1055.7 439.9 1040.4 439.9H988.7V467.6H1030.3C1035.9 467.6 1040.5 472.1 1040.5 477.8V519.4L1068.1 519.3Z" fill="#CFCFCF" stroke="#625E60" stroke-width="7" stroke-miterlimit="10"/>
    <path d="M518.9 167H497.2L457.5 105.6C455.6 102.9 454 100 452.7 97C453.3 102.2 453.5 107.4 453.3 112.6V166.8H432.8V69H455.5L493.5 128.6C495.3 131.1 496.9 133.7 498.3 136.4C497.6 132 497.4 127.6 497.6 123.2V69H518.1V167H518.9Z" fill="black"/>
    <path d="M597.7 167H540.6V69H596V87H562.3V108.7H593.6V126.7H562.3V149H597.8V167H597.7Z" fill="black"/>
    <path d="M741 69L715.7 167H691.7L676 103.8C675.4 100.8 674.8 96.4 674.2 93C673.6 97.2 673 101.4 672.4 103.8L656.1 167H631.5L606.2 69H629.7L642.9 134.6C643.7 138.4 644.1 142.2 644.1 146.1H644.8C644.9 142.2 645.5 138.4 646.6 134.6L664.1 69.6H687L703.2 134.6C704 138.2 704.6 141.8 705 145.5C705.1 141.8 705.5 138.2 706.2 134.6L719.3 69H741Z" fill="black"/>
    <path d="M833 167H806L778.3 124.3C777.3 122.6 776.5 120.8 775.9 118.9H774.7V167H753V69H774.7V115.3H775.3C775.9 114.1 776.5 112.3 777.7 109.9L804.1 69H830L796.9 115.9L833 167Z" fill="#137A3A"/>
    <path d="M899.2 167H842.1V69H897.4V87H863.7V108.7H895V126.7H863.7V149H899.2V167Z" fill="#137A3A"/>
    <path d="M987 69L955.8 132.2V167H934.1V132.7L904 69H928.7L944.3 106C944.3 106.6 945.5 109.6 946.7 113.8C947.2 111.2 947.7 108.5 948.5 106L964.1 69H987Z" fill="#137A3A"/>
    <path d="M252.7 124.6C254.3 124.4 255.8 123.7 256.9 122.4C258 121.2 258.6 119.6 258.6 117.9C258.6 116.3 258 114.7 256.9 113.4C255.8 112.2 254.3 111.4 252.7 111.2C251.8 111.1 250.8 111.2 249.9 111.5C249 111.8 248.2 112.3 247.5 112.9C246.8 113.5 246.3 114.3 245.9 115.1C245.5 115.9 245.3 116.9 245.3 117.8C245.3 118.7 245.5 119.7 245.9 120.5C246.3 121.4 246.8 122.1 247.5 122.7C248.2 123.3 249 123.8 249.9 124.1C250.9 124.6 251.8 124.7 252.7 124.6Z" fill="#137A3A"/>
    <path d="M284.6 56C270.9 56 257.4 59 245 64.8C232.6 70.6 221.7 79.1 213 89.6C217.4 90.3 221.7 91.7 225.7 93.8C225.7 93.8 330.4 108.2 365.3 131.8C356.3 131.1 347.2 131.1 338.2 131.1C327.1 131.3 316.1 132.2 305.1 133.5C294.3 134.7 283.5 137.1 272.6 137.7C267.2 138.2 261.8 138.4 256.4 138.3C250.9 138.5 245.5 138.1 240.1 137.1C245.4 138.5 250.9 139.3 256.4 139.5C261.8 140.1 267.2 140.1 272.6 139.5C278 139.5 283.5 138.9 288.9 138.9C294.3 138.2 299.7 137.8 305.1 137.7C315.9 137.1 326.8 137.1 337.6 137.7L358.1 139.5C332.8 147.9 269.3 170.2 247.1 190.6C242.8 196 239.8 202.2 238.2 208.9C236.6 215.6 236.6 222.5 238 229.2C250.3 236.3 264.1 240.4 278.3 241.3C292.5 242.2 306.7 239.8 319.8 234.4C332.9 228.9 344.6 220.6 354 209.9C363.4 199.2 370.1 186.5 373.8 172.8C377.5 159.1 378 144.7 375.2 130.8C372.5 116.9 366.6 103.7 357.9 92.4C349.3 81.1 338.2 71.9 325.5 65.6C312.8 59.4 298.8 56.1 284.6 56Z" fill="#137A3A"/>
    <path d="M455.6 204.4C457.3 205.7 458.7 207.4 459.6 209.3C460.5 211.2 460.9 213.4 460.9 215.5C461 217.4 460.7 219.2 460 221C459.3 222.7 458.3 224.3 457 225.6C455.7 226.9 454.1 227.9 452.4 228.6C450.7 229.3 448.8 229.5 446.9 229.4C445 229.5 443.1 229.2 441.4 228.5C439.6 227.8 438.1 226.7 436.8 225.4C434.3 222.7 432.9 219.2 433 215.6H440.4C440.3 217.3 440.9 219 442.1 220.3C442.7 221 443.5 221.5 444.3 221.8C445.1 222.1 446.1 222.3 447 222.2C447.9 222.3 448.8 222.2 449.6 221.9C450.4 221.6 451.2 221.1 451.9 220.5C452.5 219.9 452.9 219.2 453.2 218.4C453.5 217.6 453.6 216.8 453.6 216C453.6 215.2 453.5 214.3 453.2 213.6C452.9 212.8 452.5 212.1 451.9 211.5C451.3 210.9 450.5 210.4 449.7 210.1C448.9 209.8 448 209.7 447.1 209.7H444.3V202.3H447.1H448.8C449.4 201.9 449.9 201.3 450.2 200.6C450.5 199.9 450.7 199.2 450.7 198.4C450.7 197.9 450.6 197.3 450.4 196.8C450.2 196.3 449.9 195.9 449.5 195.5C449.1 195.1 448.6 194.8 448 194.6C447.4 194.4 446.9 194.3 446.3 194.4C445.7 194.4 445.2 194.4 444.6 194.6C444.1 194.8 443.6 195.1 443.2 195.5C442.8 195.9 442.5 196.3 442.3 196.8C442.1 197.3 442 197.8 442 198.4H434.6C434.5 196.9 434.8 195.3 435.4 193.9C436 192.5 436.8 191.2 437.9 190.1C439 189 440.3 188.2 441.7 187.6C443.1 187 444.7 186.8 446.2 186.8C447.7 186.7 449.3 187 450.7 187.5C452.1 188 453.5 188.9 454.6 190C456.5 192 457.6 194.5 457.8 197.2C458 199.9 457.1 202.6 455.4 204.8V204.4H455.6Z" fill="#137A3A"/>
    <path d="M488.4 228.8L486.3 221.4H471.5L469.4 228.8H461.8L474.6 187.4H483.8L496.5 228.8H488.4ZM474 213.9H484L479 196.6L474 213.9Z" fill="#137A3A"/>
    <path d="M527.4 187.3V228.7H520V195.1H507.4V228.7H500V187.3H527.4Z" fill="#137A3A"/>
    <path d="M566 223.3C564.3 225.3 562.1 226.8 559.7 227.9C557.3 229 554.7 229.5 552.1 229.5C549.5 229.5 546.9 228.9 544.5 227.9C542.1 226.8 540 225.3 538.2 223.3C534.6 219 532.6 213.6 532.6 208C532.6 202.4 534.6 197 538.2 192.7C539.9 190.7 542.1 189.2 544.5 188.1C546.9 187 549.5 186.5 552.1 186.5C554.7 186.5 557.3 187.1 559.7 188.1C562.1 189.1 564.2 190.7 566 192.7C569.7 197 571.7 202.4 571.7 208C571.7 213.7 569.7 219.1 566 223.3ZM543.4 217.8C544.5 219 545.8 220 547.3 220.6C548.8 221.3 550.4 221.6 552 221.6C553.6 221.6 555.2 221.3 556.7 220.7C558.2 220 559.5 219.1 560.6 217.9C562.8 215.1 564.1 211.7 564.1 208.1C564.1 204.5 562.9 201.1 560.6 198.3C559.5 197 558.1 196 556.6 195.3C555 194.6 553.4 194.3 551.7 194.4C550.1 194.4 548.4 194.7 546.9 195.4C545.4 196.1 544.1 197 543 198.3C540.8 201.1 539.5 204.5 539.5 208.1C539.5 211.7 540.7 215.1 543 217.9H543.4V217.8Z" fill="#137A3A"/>
    <path d="M590.9 187.3C592.6 187.3 594.3 187.6 595.8 188.3C597.4 189 598.7 190 599.9 191.3C602.3 194 603.6 197.5 603.6 201.1C603.6 204.7 602.3 208.2 599.9 210.9C598.8 212.2 597.4 213.2 595.8 213.9C594.2 214.6 592.6 214.9 590.9 214.9H584.2V228.8H576.8V187.4H590.9V187.3ZM590.9 207.2C591.6 207.2 592.3 207.1 593 206.7C593.7 206.4 594.2 205.9 594.7 205.4C595.7 204.2 596.2 202.6 596.2 201C596.3 199.4 595.7 197.8 594.7 196.6C594.2 196 593.7 195.6 593 195.3C592.3 195 591.6 194.8 590.9 194.8H584.2V207.1H590.9V207.2Z" fill="#137A3A"/>
    <path d="M628.4 187.3H635.8V228.7H628.4V211.3H615.9V228.7H608.5V187.3H615.9V203.5H628.4V187.3Z" fill="#137A3A"/>
    <path d="M666.1 228.8L664 221.4H649.2L647.1 228.8H639.5L652.3 187.4H661.5L674.3 228.8H666.1ZM651.8 213.9H661.8L656.8 196.6L651.8 213.9Z" fill="#137A3A"/>
    <path d="M705 187.3V228.7H697.6V214.3H694L683.5 228.7H674.6L686.2 213.5C683.8 212.5 681.8 210.7 680.4 208.5C679 206.3 678.2 203.7 678.2 201.1C678.1 197.5 679.5 194 681.9 191.3C683 190 684.4 189 685.9 188.3C687.4 187.6 689.1 187.3 690.8 187.3H705ZM691.1 207.2H697.6V194.9H691.1C690.4 194.9 689.6 195.1 689 195.4C688.3 195.7 687.7 196.2 687.3 196.7C686.2 197.9 685.6 199.5 685.7 201.1C685.7 201.9 685.8 202.7 686.1 203.4C686.4 204.1 686.8 204.8 687.3 205.4C687.8 206 688.3 206.4 689 206.8C689.7 207 690.4 207.2 691.1 207.2Z" fill="#137A3A"/>
    <path d="M748.8 228.8L746.7 221.4H731.9L729.8 228.8H722L734.8 187.4H744.2L757 228.8H748.8ZM734.4 213.9H744.2L739.2 196.6L734.4 213.9Z" fill="#137A3A"/>
    <path d="M774.5 187.3C776.2 187.3 777.9 187.6 779.4 188.3C780.9 189 782.3 190 783.4 191.3C785.8 194 787.1 197.5 787.1 201.1C787.1 204.7 785.8 208.2 783.4 210.9C782.3 212.2 780.9 213.2 779.4 213.9C777.9 214.6 776.2 214.9 774.5 214.9H767.8V228.8H760.4V187.4H774.5V187.3ZM774.5 207.2C775.2 207.2 775.9 207.1 776.6 206.7C777.3 206.4 777.8 205.9 778.3 205.4C779.3 204.2 779.8 202.6 779.8 201C779.8 199.4 779.3 197.9 778.3 196.6C777.8 196 777.3 195.6 776.6 195.3C775.9 195 775.2 194.8 774.5 194.8H767.8V207.1H774.5V207.2Z" fill="#137A3A"/>
    <path d="M828.8 187.3V228.7H821.4V200.6L813 221.8H807.7L799.3 200.6V228.4H792V187H800.4L810.7 212.5L820.6 187.2H828.8V187.3Z" fill="#137A3A"/>
    <path d="M859.1 228.8L857 221.4H842.6L840.5 228.8H832.5L845.2 187.4H854.4L867.1 228.8H859.1ZM844.9 213.9H855.2L850.2 196.6L844.9 213.9Z" fill="#137A3A"/>
    <path d="M890.9 187.3V195.1H881.8V228.7H874.4V195.1H865.4V187.3H890.9Z" fill="#137A3A"/>
    <path d="M915.8 187.3H923.2L911.9 217.4C911.1 220.7 909.2 223.7 906.5 225.7C903.8 227.8 900.5 228.9 897.1 228.8V221.4C898.8 221.6 900.5 221.2 901.9 220.4C903.3 219.5 904.4 218.2 905 216.6L892.7 187.7H900.1L908.3 207.7L915.8 187.3Z" fill="#137A3A"/>
    <path d="M941.3 187.3C943 187.3 944.7 187.6 946.2 188.3C947.8 189 949.1 190 950.3 191.3C952.7 194 954 197.5 954 201.1C954 204.7 952.7 208.2 950.3 210.9C949.2 212.2 947.8 213.2 946.2 213.9C944.6 214.6 943 214.9 941.3 214.9H934.6V228.8H927.2V187.4H941.3V187.3ZM941.3 207.2C942 207.2 942.7 207.1 943.4 206.7C944.1 206.4 944.6 205.9 945.1 205.4C946.1 204.2 946.7 202.6 946.7 201C946.8 199.4 946.2 197.8 945.1 196.6C944.6 196 944.1 195.6 943.4 195.3C942.7 195 942 194.8 941.3 194.8H934.6V207.1H941.3V207.2Z" fill="#137A3A"/>
    <path d="M979 228.8L976.8 221.4H962.4L960.3 228.8H952.3L965 187.4H974.2L986.9 228.8H979ZM964.7 213.9H974.7L969.7 196.6L964.7 213.9Z" fill="#137A3A"/>
    <path d="M269 1029H1112V1325C1112 1339.9 1099.9 1352 1085 1352H296C281.1 1352 269 1339.9 269 1325V1029Z" fill="url(#paint0_linear)" fill-opacity="0.7" stroke="#908A88" stroke-width="6"/>
    <defs>
        <linearGradient id="paint0_linear" x1="690.5" y1="1355" x2="690.5" y2="1142.5" gradientUnits="userSpaceOnUse">
            <stop stop-color="#33C0C9"/>
            <stop offset="1" stop-color="white" stop-opacity="0"/>
        </linearGradient>
    </defs>
</svg>

